<svg xmlns="http://www.w3.org/2000/svg" width="1080" height="1080" viewBox="0 0 1080 1080">
  <defs>
    <linearGradient id="bg" x1="0%" y1="0%" x2="100%" y2="100%">
      <stop offset="0%" stop-color="#0e0b07"/>
      <stop offset="100%" stop-color="#000000"/>
    </linearGradient>
    <linearGradient id="gold" x1="0%" y1="0%" x2="100%" y2="100%">
      <stop offset="0%" stop-color="#E5C981"/>
      <stop offset="100%" stop-color="#8f7a4d"/>
    </linearGradient>
  </defs>
  <rect width="1080" height="1080" fill="url(#bg)"/>

  <line x1="80" y1="100" x2="1000" y2="100" stroke="#C6A969" stroke-width="1" opacity="0.4"/>
  <text x="540" y="142" font-family="'Inter',sans-serif" font-size="20" fill="#C6A969" text-anchor="middle" letter-spacing="10" opacity="0.75">03 · CERTIFICATE OF ANALYSIS</text>

  <text x="540" y="230" font-family="'Playfair Display',Georgia,serif" font-size="62" font-weight="400" fill="#f0e4c8" text-anchor="middle" font-style="italic">El COA es público.</text>
  <text x="540" y="290" font-family="'Playfair Display',Georgia,serif" font-size="38" font-weight="400" fill="#a8987a" text-anchor="middle" font-style="italic">Si no lo encuentras, no existe.</text>

  <!-- COA mock document -->
  <g transform="translate(280 340)">
    <rect width="520" height="500" fill="#f0e4c8" rx="4"/>
    <rect width="520" height="60" fill="#7a2929"/>
    <text x="260" y="40" font-family="'Playfair Display',Georgia,serif" font-size="24" fill="#E5C981" text-anchor="middle" letter-spacing="4">CERTIFICATE OF ANALYSIS</text>

    <text x="40" y="100" font-family="'Inter',sans-serif" font-size="14" fill="#5a4a2a" letter-spacing="2">PRODUCT</text>
    <text x="40" y="125" font-family="'Playfair Display',Georgia,serif" font-size="22" fill="#1a1410">BPC-157 · 10mg</text>

    <text x="300" y="100" font-family="'Inter',sans-serif" font-size="14" fill="#5a4a2a" letter-spacing="2">LOT</text>
    <text x="300" y="125" font-family="'Playfair Display',Georgia,serif" font-size="22" fill="#1a1410">PTQ-0421-A</text>

    <line x1="40" y1="155" x2="480" y2="155" stroke="#8f7a4d" stroke-width="0.8"/>

    <g font-family="'Inter',sans-serif" font-size="15" fill="#1a1410">
      <text x="40" y="195" letter-spacing="1">PURITY (HPLC)</text>
      <text x="480" y="195" text-anchor="end" font-weight="600">99.4%</text>
      <text x="40" y="230" letter-spacing="1">MASS SPEC</text>
      <text x="480" y="230" text-anchor="end" font-weight="600">PASS</text>
      <text x="40" y="265" letter-spacing="1">ENDOTOXIN</text>
      <text x="480" y="265" text-anchor="end" font-weight="600">&lt;0.05 EU/mg</text>
      <text x="40" y="300" letter-spacing="1">STERILITY</text>
      <text x="480" y="300" text-anchor="end" font-weight="600">PASS</text>
      <text x="40" y="335" letter-spacing="1">APPEARANCE</text>
      <text x="480" y="335" text-anchor="end" font-weight="600">WHITE LYOPHILIZED</text>
    </g>

    <line x1="40" y1="370" x2="480" y2="370" stroke="#8f7a4d" stroke-width="0.8"/>

    <text x="40" y="405" font-family="'Inter',sans-serif" font-size="14" fill="#5a4a2a" letter-spacing="2">TESTED BY</text>
    <text x="40" y="430" font-family="'Playfair Display',Georgia,serif" font-size="22" fill="#1a1410">Janoshik Analytical</text>
    <text x="40" y="455" font-family="'Inter',sans-serif" font-size="13" fill="#5a4a2a" letter-spacing="1">Third-party · Independent · Czech Republic</text>

    <!-- QR mock -->
    <g transform="translate(380 380)">
      <rect width="100" height="100" fill="#1a1410"/>
      <g fill="#f0e4c8">
        <rect x="10" y="10" width="20" height="20"/>
        <rect x="70" y="10" width="20" height="20"/>
        <rect x="10" y="70" width="20" height="20"/>
        <rect x="40" y="40" width="20" height="20"/>
        <rect x="40" y="10" width="10" height="10"/>
        <rect x="55" y="40" width="10" height="10"/>
        <rect x="70" y="55" width="10" height="10"/>
        <rect x="40" y="70" width="10" height="10"/>
      </g>
    </g>
  </g>

  <text x="540" y="900" font-family="'Inter',sans-serif" font-size="22" fill="#C6A969" text-anchor="middle" letter-spacing="6">peptiqmx.com/coa/PTQ-0421-A</text>

  <line x1="80" y1="990" x2="1000" y2="990" stroke="#C6A969" stroke-width="1" opacity="0.4"/>
  <text x="540" y="1035" font-family="'Inter',sans-serif" font-size="20" fill="#a8987a" text-anchor="middle" letter-spacing="8">04 / 08</text>
</svg>
