<svg xmlns="http://www.w3.org/2000/svg" width="1080" height="1080" viewBox="0 0 1080 1080">
  <defs>
    <linearGradient id="bg" x1="0%" y1="0%" x2="100%" y2="100%"><stop offset="0%" stop-color="#0e0b07"/><stop offset="100%" stop-color="#000000"/></linearGradient>
    <linearGradient id="gold" x1="0%" y1="0%" x2="100%" y2="100%"><stop offset="0%" stop-color="#E5C981"/><stop offset="100%" stop-color="#8f7a4d"/></linearGradient>
  </defs>
  <rect width="1080" height="1080" fill="url(#bg)"/>
  <line x1="80" y1="100" x2="1000" y2="100" stroke="#C6A969" stroke-width="1" opacity="0.4"/>
  <text x="540" y="142" font-family="'Inter',sans-serif" font-size="20" fill="#C6A969" text-anchor="middle" letter-spacing="10" opacity="0.75">03 · DOS CADENAS DE VALOR</text>

  <!-- LEFT — Reseller chain -->
  <g transform="translate(80 220)">
    <text x="220" y="40" font-family="'Inter',sans-serif" font-size="18" fill="#7a6a4a" text-anchor="middle" letter-spacing="6">RESELLER</text>
    <line x1="180" y1="60" x2="260" y2="60" stroke="#7a6a4a" stroke-width="0.6"/>

    <g font-family="'Inter',sans-serif" fill="#7a6a4a" font-size="16">
      <rect x="60" y="100" width="320" height="60" fill="none" stroke="#3a2a1a" stroke-width="1"/>
      <text x="220" y="135" text-anchor="middle" letter-spacing="2">FÁBRICA CHINA GENÉRICA</text>
      <line x1="220" y1="170" x2="220" y2="200" stroke="#3a2a1a" stroke-width="1" stroke-dasharray="4 4"/>
      <text x="240" y="190" font-size="12">?</text>

      <rect x="60" y="200" width="320" height="60" fill="none" stroke="#3a2a1a" stroke-width="1"/>
      <text x="220" y="235" text-anchor="middle" letter-spacing="2">DISTRIBUIDOR US/MX</text>
      <line x1="220" y1="270" x2="220" y2="300" stroke="#3a2a1a" stroke-width="1" stroke-dasharray="4 4"/>

      <rect x="60" y="300" width="320" height="60" fill="none" stroke="#3a2a1a" stroke-width="1"/>
      <text x="220" y="335" text-anchor="middle" letter-spacing="2">RESELLER MX (SHOPIFY)</text>
      <line x1="220" y1="370" x2="220" y2="400" stroke="#3a2a1a" stroke-width="1" stroke-dasharray="4 4"/>

      <rect x="60" y="400" width="320" height="60" fill="none" stroke="#3a2a1a" stroke-width="1"/>
      <text x="220" y="435" text-anchor="middle" letter-spacing="2">TÚ</text>

      <text x="220" y="510" text-anchor="middle" font-size="14" letter-spacing="2">4 PASOS · 0 TRAZABILIDAD</text>
    </g>
  </g>

  <!-- RIGHT — Marca propia chain -->
  <g transform="translate(620 220)">
    <text x="220" y="40" font-family="'Playfair Display',Georgia,serif" font-size="22" fill="#E5C981" text-anchor="middle" letter-spacing="6" font-style="italic">PEPTIQ</text>
    <line x1="170" y1="60" x2="270" y2="60" stroke="url(#gold)" stroke-width="0.8"/>

    <g font-family="'Inter',sans-serif" fill="#f0e4c8" font-size="16">
      <rect x="60" y="100" width="320" height="60" fill="none" stroke="url(#gold)" stroke-width="1.5"/>
      <text x="220" y="135" text-anchor="middle" letter-spacing="2">LAB SELECCIONADO + AUDIT</text>
      <line x1="220" y1="170" x2="220" y2="200" stroke="#C6A969" stroke-width="1"/>

      <rect x="60" y="200" width="320" height="60" fill="none" stroke="url(#gold)" stroke-width="1.5"/>
      <text x="220" y="235" text-anchor="middle" letter-spacing="2">JANOSHIK · 3RD PARTY</text>
      <line x1="220" y1="270" x2="220" y2="300" stroke="#C6A969" stroke-width="1"/>

      <rect x="60" y="300" width="320" height="60" fill="none" stroke="url(#gold)" stroke-width="1.5"/>
      <text x="220" y="335" text-anchor="middle" letter-spacing="2">PEPTIQ · LOTE + COA</text>
      <line x1="220" y1="370" x2="220" y2="400" stroke="#C6A969" stroke-width="1"/>

      <rect x="60" y="400" width="320" height="60" fill="url(#gold)"/>
      <text x="220" y="435" text-anchor="middle" letter-spacing="2" fill="#0e0b07" font-weight="600">TÚ</text>

      <text x="220" y="510" text-anchor="middle" font-size="14" fill="#C6A969" letter-spacing="2">4 PASOS · 100% TRAZABILIDAD</text>
    </g>
  </g>

  <text x="540" y="900" font-family="'Playfair Display',Georgia,serif" font-size="32" fill="#f0e4c8" text-anchor="middle" font-style="italic">Mismos pasos. Resultados opuestos.</text>

  <line x1="80" y1="990" x2="1000" y2="990" stroke="#C6A969" stroke-width="1" opacity="0.4"/>
  <text x="540" y="1035" font-family="'Inter',sans-serif" font-size="20" fill="#a8987a" text-anchor="middle" letter-spacing="8">04 / 08</text>
</svg>
